<svg xmlns="http://www.w3.org/2000/svg">
  <symbol id="icon-menu" viewBox="0 0 24 24" fill="none" stroke="currentColor" stroke-width="2" stroke-linecap="round">
    <path d="M4 6h16M4 12h16M4 18h16" />
  </symbol>
  <symbol id="icon-more-vertical" viewBox="0 0 24 24" fill="currentColor">
    <circle cx="12" cy="5" r="1.6" /><circle cx="12" cy="12" r="1.6" /><circle cx="12" cy="19" r="1.6" />
  </symbol>
  <symbol id="icon-minus" viewBox="0 0 24 24" fill="none" stroke="currentColor" stroke-width="2" stroke-linecap="round">
    <path d="M5 12h14" />
  </symbol>
  <symbol id="icon-plus" viewBox="0 0 24 24" fill="none" stroke="currentColor" stroke-width="2" stroke-linecap="round">
    <path d="M12 5v14M5 12h14" />
  </symbol>
  <symbol id="icon-trash" viewBox="0 0 24 24" fill="none" stroke="currentColor" stroke-width="1.8" stroke-linecap="round" stroke-linejoin="round">
    <path d="M4 7h16M9 7V4h6v3m3 0-1 13H7L6 7m4 4v5m4-5v5" />
  </symbol>
  <symbol id="icon-maximize" viewBox="0 0 24 24" fill="none" stroke="currentColor" stroke-width="2" stroke-linecap="round" stroke-linejoin="round">
    <path d="M4 9V4h5M15 4h5v5M20 15v5h-5M9 20H4v-5" />
  </symbol>
  <symbol id="icon-fullscreen" viewBox="0 0 24 24" fill="none" stroke="currentColor" stroke-width="2" stroke-linecap="round" stroke-linejoin="round">
    <path d="M8 3H3v5M16 3h5v5M21 16v5h-5M8 21H3v-5M3 8l6-6M15 2l6 6M21 16l-6 6M9 22l-6-6" />
  </symbol>
  <symbol id="icon-fit-width" viewBox="0 0 24 24" fill="none" stroke="currentColor" stroke-width="2" stroke-linecap="round" stroke-linejoin="round">
    <path d="M10 12H3m0 0 3-3m-3 3 3 3m8-3h7m0 0-3-3m3 3-3 3" />
  </symbol>
  <symbol id="icon-fit-height" viewBox="0 0 24 24" fill="none" stroke="currentColor" stroke-width="2" stroke-linecap="round" stroke-linejoin="round">
    <path d="M12 10V3m0 0L9 6m3-3 3 3m-3 8v7m0 0-3-3m3 3 3-3" />
  </symbol>
  <symbol id="icon-fit-both" viewBox="0 0 24 24" fill="none" stroke="currentColor" stroke-width="2" stroke-linecap="round" stroke-linejoin="round">
    <path d="M9 9 4 4m0 0v5m0-5h5m6 5 5-5m0 0v5m0-5h-5M9 15l-5 5m0 0v-5m0 5h5m6-5 5 5m0 0v-5m0 5h-5" />
  </symbol>
  <symbol id="icon-merge" viewBox="0 0 24 24" fill="none" stroke="currentColor" stroke-width="1.8" stroke-linecap="round" stroke-linejoin="round">
    <path d="m10.2 13.8-1.7 1.7a3.5 3.5 0 0 1-5-5l3-3a3.5 3.5 0 0 1 5 0" />
    <path d="m13.8 10.2 1.7-1.7a3.5 3.5 0 0 1 5 5l-3 3a3.5 3.5 0 0 1-5 0" />
    <path d="m8.8 15.2 6.4-6.4" />
  </symbol>
  <symbol id="icon-resolve-overlap" viewBox="0 0 24 24" fill="none" stroke="currentColor" stroke-width="1.8" stroke-linecap="round" stroke-linejoin="round">
    <rect x="4" y="4" width="9" height="9" rx="1.5" />
    <rect x="11" y="11" width="9" height="9" rx="1.5" />
    <path d="M8 17H3m0 0 2-2m-2 2 2 2M16 7h5m0 0-2-2m2 2-2 2" />
  </symbol>
  <symbol id="icon-grid" viewBox="0 0 24 24" fill="none" stroke="currentColor" stroke-width="1.8" stroke-linecap="round">
    <path d="M4 4h16v16H4zM4 9.33h16M4 14.67h16M9.33 4v16M14.67 4v16" />
  </symbol>
  <symbol id="icon-layout" viewBox="0 0 24 24" fill="none" stroke="currentColor" stroke-width="1.8" stroke-linecap="round" stroke-linejoin="round">
    <rect x="4" y="3" width="16" height="18" rx="2" /><path d="M7 7h10M7 11h4M13 11h4M7 15h10M7 18h7" />
  </symbol>
  <symbol id="icon-sidebar-right" viewBox="0 0 24 24" fill="none" stroke="currentColor" stroke-width="1.8" stroke-linecap="round" stroke-linejoin="round">
    <rect x="3" y="4" width="18" height="16" rx="2" /><path d="M15 4v16" />
  </symbol>
  <symbol id="icon-list-rows" viewBox="0 0 24 24" fill="none" stroke="currentColor" stroke-width="1.8" stroke-linecap="round" stroke-linejoin="round">
    <rect x="3" y="4" width="18" height="4" rx="1" /><rect x="3" y="10" width="18" height="4" rx="1" /><rect x="3" y="16" width="18" height="4" rx="1" />
  </symbol>
  <symbol id="icon-chevron-down" viewBox="0 0 24 24" fill="none" stroke="currentColor" stroke-width="2" stroke-linecap="round" stroke-linejoin="round">
    <path d="m6 9 6 6 6-6" />
  </symbol>
  <symbol id="icon-check" viewBox="0 0 24 24" fill="none" stroke="currentColor" stroke-width="2" stroke-linecap="round" stroke-linejoin="round">
    <path d="m5 12 4 4L19 6" />
  </symbol>
  <symbol id="icon-close" viewBox="0 0 24 24" fill="none" stroke="currentColor" stroke-width="2" stroke-linecap="round">
    <path d="m18 6-12 12M6 6l12 12" />
  </symbol>
  <symbol id="icon-undo" viewBox="0 0 24 24" fill="none" stroke="currentColor" stroke-width="2" stroke-linecap="round" stroke-linejoin="round">
    <path d="M9 14 4 9l5-5M4 9h10.5a5.5 5.5 0 0 1 0 11H11" />
  </symbol>
  <symbol id="icon-redo" viewBox="0 0 24 24" fill="none" stroke="currentColor" stroke-width="2" stroke-linecap="round" stroke-linejoin="round">
    <path d="m15 14 5-5-5-5M20 9H9.5a5.5 5.5 0 0 0 0 11H13" />
  </symbol>
  <symbol id="icon-grip-vertical" viewBox="0 0 24 24" fill="currentColor">
    <circle cx="9" cy="5" r="1.5" /><circle cx="15" cy="5" r="1.5" />
    <circle cx="9" cy="12" r="1.5" /><circle cx="15" cy="12" r="1.5" />
    <circle cx="9" cy="19" r="1.5" /><circle cx="15" cy="19" r="1.5" />
  </symbol>
  <symbol id="icon-arrow-right" viewBox="0 0 24 24" fill="none" stroke="currentColor" stroke-width="2" stroke-linecap="round" stroke-linejoin="round">
    <path d="M5 12h14m-6-6 6 6-6 6" />
  </symbol>
  <symbol id="icon-arrow-left" viewBox="0 0 24 24" fill="none" stroke="currentColor" stroke-width="2" stroke-linecap="round" stroke-linejoin="round">
    <path d="M19 12H5m6 6-6-6 6-6" />
  </symbol>
  <symbol id="icon-move-horizontal" viewBox="0 0 24 24" fill="none" stroke="currentColor" stroke-width="2" stroke-linecap="round" stroke-linejoin="round">
    <path d="M5 9 2 12l3 3m14-6 3 3-3 3M2 12h20" />
  </symbol>
  <symbol id="icon-move-vertical" viewBox="0 0 24 24" fill="none" stroke="currentColor" stroke-width="2" stroke-linecap="round" stroke-linejoin="round">
    <path d="m9 5 3-3 3 3m-6 14 3 3 3-3M12 2v20" />
  </symbol>
  <symbol id="icon-bold" viewBox="0 0 24 24" fill="none" stroke="currentColor" stroke-width="2" stroke-linecap="round" stroke-linejoin="round">
    <path d="M6 4h7a4 4 0 0 1 0 8H6zm0 8h8a4 4 0 0 1 0 8H6z" />
  </symbol>
  <symbol id="icon-italic" viewBox="0 0 24 24" fill="none" stroke="currentColor" stroke-width="2" stroke-linecap="round">
    <path d="M19 4h-9M14 20H5M15 4 9 20" />
  </symbol>
  <symbol id="icon-align-left" viewBox="0 0 24 24" fill="none" stroke="currentColor" stroke-width="2" stroke-linecap="round">
    <path d="M4 6h16M4 12h10M4 18h16" />
  </symbol>
  <symbol id="icon-align-center" viewBox="0 0 24 24" fill="none" stroke="currentColor" stroke-width="2" stroke-linecap="round">
    <path d="M4 6h16M7 12h10M4 18h16" />
  </symbol>
  <symbol id="icon-align-right" viewBox="0 0 24 24" fill="none" stroke="currentColor" stroke-width="2" stroke-linecap="round">
    <path d="M4 6h16M10 12h10M4 18h16" />
  </symbol>
  <symbol id="icon-align-justify" viewBox="0 0 24 24" fill="none" stroke="currentColor" stroke-width="2" stroke-linecap="round">
    <path d="M4 6h16M4 12h16M4 18h16" />
  </symbol>
  <symbol id="icon-indent-increase" viewBox="0 0 24 24" fill="none" stroke="currentColor" stroke-width="2" stroke-linecap="round" stroke-linejoin="round">
    <path d="M4 6h16M10 12h10M4 18h16m0-6-4-3v6z" />
  </symbol>
</svg>
